<?xml version="1.0" standalone="no"?>
<!DOCTYPE svg PUBLIC "-//W3C//DTD SVG 20010904//EN"
 "http://www.w3.org/TR/2001/REC-SVG-20010904/DTD/svg10.dtd">
<svg version="1.0" xmlns="http://www.w3.org/2000/svg"
 width="934.000000pt" height="980.000000pt" viewBox="0 0 934.000000 980.000000"
 preserveAspectRatio="xMidYMid meet">

<g transform="translate(0.000000,980.000000) scale(0.100000,-0.100000)"
fill="#000000" stroke="none">
<path d="M5362 9784 c-702 -109 -1236 -554 -1451 -1210 -66 -202 -75 -262 -75
-494 0 -315 26 -473 110 -684 165 -411 481 -751 879 -945 262 -128 532 -181
856 -168 358 15 698 140 984 362 92 72 249 231 318 322 152 199 278 471 332
713 22 101 31 431 16 582 -50 478 -342 951 -761 1233 -349 235 -824 348 -1208
289z m308 -533 l0 -148 53 -7 c55 -7 166 -38 230 -63 27 -11 37 -21 37 -37 0
-28 -65 -295 -74 -303 -4 -4 -44 6 -89 22 -154 56 -341 34 -398 -47 -30 -41
-36 -131 -15 -196 20 -58 60 -94 251 -223 268 -180 375 -352 375 -599 0 -160
-68 -329 -169 -422 -33 -31 -98 -75 -148 -101 l-90 -46 -7 -173 c-4 -95 -8
-173 -9 -174 -1 -1 -64 -5 -141 -10 -113 -5 -140 -4 -147 7 -5 8 -9 75 -9 149
0 74 -3 144 -6 156 -4 17 -19 22 -90 32 -92 14 -208 51 -232 76 -14 14 -12 31
17 173 18 87 34 160 37 162 3 3 19 -1 37 -8 143 -59 288 -83 382 -62 136 31
203 181 140 316 -28 59 -135 160 -260 244 -146 99 -271 223 -316 316 l-34 70
0 165 0 166 33 65 c69 137 184 250 295 291 l57 21 0 168 0 169 145 0 145 0 0
-149z"/>
<path d="M2168 7150 c-123 -22 -249 -74 -268 -109 -6 -13 -10 -156 -11 -393 0
-264 -4 -382 -12 -404 -8 -19 -79 -90 -195 -194 -405 -360 -664 -715 -852
-1170 -28 -69 -55 -128 -59 -133 -4 -4 -78 -12 -165 -17 -204 -13 -279 -30
-356 -82 -72 -48 -164 -153 -197 -224 -13 -28 -28 -89 -34 -135 -16 -125 -17
-750 -1 -818 40 -170 179 -330 342 -392 34 -13 99 -23 203 -30 215 -15 217
-16 232 -64 17 -56 107 -253 162 -355 197 -363 478 -700 815 -980 l115 -95 6
-545 c3 -306 10 -569 16 -600 35 -184 209 -356 396 -391 37 -7 204 -12 440
-13 l380 -1 78 28 c152 54 250 140 318 282 41 84 45 108 64 378 6 76 9 87 25
87 10 0 101 -13 202 -29 655 -106 1227 -96 1869 30 149 30 213 39 221 31 6 -6
14 -89 19 -194 5 -101 13 -203 19 -228 42 -171 224 -339 401 -370 45 -8 194
-10 470 -8 455 5 442 3 554 83 125 88 207 212 225 336 5 35 10 332 10 660 l0
596 121 119 c214 211 352 376 500 597 158 238 289 518 363 779 50 176 72 320
94 636 l7 103 95 38 c212 83 376 240 476 457 69 148 97 329 75 474 -24 153
-110 353 -195 454 l-32 39 4 -91 c11 -230 -89 -488 -253 -656 -82 -84 -223
-184 -230 -164 -3 7 -29 87 -59 178 -95 290 -207 525 -361 755 -200 299 -483
594 -794 828 -165 124 -293 207 -321 207 -29 0 -52 -14 -130 -80 -78 -66 -166
-127 -305 -210 -66 -40 -122 -74 -123 -75 -2 -2 50 -31 116 -64 228 -117 286
-167 318 -280 32 -109 -3 -220 -96 -304 -100 -90 -194 -98 -345 -30 -49 23
-142 65 -205 93 -303 138 -578 231 -860 294 -325 71 -581 92 -1350 109 -170 4
-190 9 -249 69 -56 56 -85 131 -85 218 0 127 57 212 179 269 36 17 70 31 75
31 25 0 3 37 -81 137 -50 59 -132 170 -182 245 -65 96 -98 137 -111 138 -28 0
-473 -115 -575 -149 l-83 -28 -67 67 c-117 116 -257 197 -416 240 -89 24 -271
34 -347 20z m-71 -1833 c28 -28 29 -133 3 -211 -48 -145 -184 -307 -312 -371
-112 -55 -181 -42 -208 41 -49 147 167 482 355 552 43 16 142 10 162 -11z"/>
</g>
</svg>
